PublicSans-ThinItalic.ufo
<glyph name="plus" format="2">
  <advance width="980"/>
  <unicode hex="002B"/>
  <outline>
    <contour>
      <point x="432" y="336" type="line"/>
      <point x="500" y="336" type="line"/>
      <point x="608" y="1118" type="line"/>
      <point x="540" y="1118" type="line"/>
    </contour>
    <contour>
      <point x="154" y="688" type="line"/>
      <point x="874" y="690" type="line"/>
      <point x="884" y="764" type="line"/>
      <point x="164" y="762" type="line"/>
    </contour>
  </outline>
</glyph>
<glyph name="comma" format="2">
  <advance width="395"/>
  <unicode hex="002C"/>
  <guideline x="25" y="0" angle="66.5601"/>
  <outline>
    <contour>
      <point x="-24" y="-222" type="line"/>
      <point x="34" y="-222" type="line"/>
      <point x="196" y="24" type="line"/>
      <point x="214" y="160" type="line"/>
      <point x="62" y="160" type="line"/>
      <point x="40" y="0" type="line"/>
      <point x="106" y="0" type="line"/>
    </contour>
  </outline>
</glyph>
<glyph name="nine" format="2">
  <advance width="1102"/>
  <unicode hex="0039"/>
  <outline>
    <contour>
      <point x="439" y="-4" type="curve" smooth="yes"/>
      <point x="761" y="-4"/>
      <point x="967" y="298"/>
      <point x="1030" y="750" type="curve" smooth="yes"/>
      <point x="1096" y="1218"/>
      <point x="947" y="1482"/>
      <point x="667" y="1482" type="curve" smooth="yes"/>
      <point x="402" y="1482"/>
      <point x="226" y="1286"/>
      <point x="185" y="992" type="curve" smooth="yes"/>
      <point x="142" y="690"/>
      <point x="289" y="516"/>
      <point x="547" y="516" type="curve" smooth="yes"/>
      <point x="733" y="516"/>
      <point x="905" y="654"/>
      <point x="972" y="854" type="curve"/>
      <point x="915" y="326"/>
      <point x="723" y="74"/>
      <point x="442" y="74" type="curve" smooth="yes"/>
      <point x="280" y="74"/>
      <point x="170" y="174"/>
      <point x="153" y="326" type="curve"/>
      <point x="79" y="330" type="line"/>
      <point x="94" y="118"/>
      <point x="245" y="-4"/>
    </contour>
    <contour>
      <point x="541" y="598" type="curve" smooth="yes"/>
      <point x="311" y="598"/>
      <point x="232" y="754"/>
      <point x="265" y="988" type="curve" smooth="yes"/>
      <point x="300" y="1234"/>
      <point x="458" y="1400"/>
      <point x="658" y="1400" type="curve" smooth="yes"/>
      <point x="871" y="1400"/>
      <point x="984" y="1206"/>
      <point x="945" y="958" type="curve"/>
      <point x="916" y="752"/>
      <point x="724" y="598"/>
    </contour>
  </outline>
</glyph>
<glyph name="U" format="2">
  <advance width="1277"/>
  <unicode hex="0055"/>
  <anchor x="585" y="4" name="bottom"/>
  <anchor x="1171" y="1212" name="horn"/>
  <anchor x="719" y="18" name="ogonek"/>
  <anchor x="793" y="1446" name="top"/>
  <outline>
    <contour>
      <point x="585" y="-20" type="curve" smooth="yes"/>
      <point x="881" y="-20"/>
      <point x="1047" y="134"/>
      <point x="1091" y="448" type="curve" smooth="yes"/>
      <point x="1230" y="1446" type="line"/>
      <point x="1159" y="1446" type="line"/>
      <point x="1019" y="444" type="line" smooth="yes"/>
      <point x="983" y="188"/>
      <point x="841" y="56"/>
      <point x="595" y="56" type="curve" smooth="yes"/>
      <point x="351" y="56"/>
      <point x="253" y="192"/>
      <point x="289" y="444" type="curve" smooth="yes"/>
      <point x="429" y="1446" type="line"/>
      <point x="351" y="1446" type="line"/>
      <point x="215" y="478" type="line" smooth="yes"/>
      <point x="167" y="138"/>
      <point x="283" y="-20"/>
    </contour>
  </outline>
</glyph>
<glyph name="Y" format="2">
  <advance width="1012"/>
  <unicode hex="0059"/>
  <guideline x="232" y="335" angle="239.8907"/>
  <guideline x="197" y="328" angle="300.4397"/>
  <anchor x="438" y="0" name="bottom"/>
  <anchor x="638" y="1450" name="top"/>
  <outline>
    <contour>
      <point x="402" y="0" type="line"/>
      <point x="473" y="0" type="line"/>
      <point x="561" y="622" type="line"/>
      <point x="1114" y="1446" type="line"/>
      <point x="1034" y="1446" type="line"/>
      <point x="536" y="702" type="line"/>
      <point x="240" y="1446" type="line"/>
      <point x="160" y="1446" type="line"/>
      <point x="488" y="624" type="line"/>
    </contour>
  </outline>
</glyph>
<glyph name="u" format="2">
  <advance width="1064"/>
  <unicode hex="0075"/>
  <anchor x="461" y="0" name="bottom"/>
  <anchor x="879" y="856" name="horn"/>
  <anchor x="773" y="22" name="ogonek"/>
  <anchor x="606" y="1034" name="top"/>
  <outline>
    <contour>
      <point x="461" y="-20" type="curve" smooth="yes"/>
      <point x="619" y="-22"/>
      <point x="729" y="62"/>
      <point x="781" y="190" type="curve"/>
      <point x="760" y="0" type="line"/>
      <point x="826" y="0" type="line"/>
      <point x="972" y="1034" type="line"/>
      <point x="900" y="1034" type="line"/>
      <point x="805" y="362" type="line"/>
      <point x="776" y="154"/>
      <point x="644" y="56"/>
      <point x="467" y="56" type="curve" smooth="yes"/>
      <point x="267" y="56"/>
      <point x="189" y="172"/>
      <point x="214" y="346" type="curve" smooth="yes"/>
      <point x="311" y="1034" type="line"/>
      <point x="238" y="1034" type="line"/>
      <point x="142" y="346" type="line" smooth="yes"/>
      <point x="107" y="100"/>
      <point x="239" y="-17"/>
    </contour>
  </outline>
</glyph>
<glyph name="z" format="2">
  <advance width="872"/>
  <unicode hex="007A"/>
  <anchor x="360" y="0" name="bottom"/>
  <anchor x="542" y="1034" name="top"/>
  <outline>
    <contour>
      <point x="22" y="0" type="line"/>
      <point x="716" y="0" type="line"/>
      <point x="726" y="68" type="line"/>
      <point x="113" y="68" type="line"/>
      <point x="846" y="966" type="line"/>
      <point x="855" y="1034" type="line"/>
      <point x="210" y="1034" type="line"/>
      <point x="200" y="966" type="line"/>
      <point x="765" y="966" type="line"/>
      <point x="30" y="68" type="line"/>
    </contour>
  </outline>
</glyph>
<glyph name="brokenbar" format="2">
  <advance width="510"/>
  <unicode hex="00A6"/>
  <outline>
    <contour>
      <point x="270" y="864" type="line"/>
      <point x="338" y="864" type="line"/>
      <point x="450" y="1652" type="line"/>
      <point x="380" y="1652" type="line"/>
    </contour>
    <contour>
      <point x="104" y="-322" type="line"/>
      <point x="172" y="-322" type="line"/>
      <point x="282" y="466" type="line"/>
      <point x="214" y="466" type="line"/>
    </contour>
  </outline>
</glyph>
<glyph name="idotless" format="2">
  <advance width="480"/>
  <unicode hex="0131"/>
  <anchor x="192" y="26" name="ogonek"/>
  <anchor x="311" y="1034" name="top"/>
  <outline>
    <contour>
      <point x="131" y="0" type="line"/>
      <point x="203" y="0" type="line"/>
      <point x="349" y="1034" type="line"/>
      <point x="276" y="1034" type="line"/>
    </contour>
  </outline>
</glyph>
<glyph name="commaturnedmod" format="2">
  <advance width="353"/>
  <unicode hex="02BB"/>
  <outline>
    <contour>
      <point x="177" y="1068" type="line"/>
      <point x="329" y="1068" type="line"/>
      <point x="351" y="1224" type="line"/>
      <point x="265" y="1224" type="line"/>
      <point x="267" y="1232" type="line"/>
      <point x="275" y="1292"/>
      <point x="319" y="1362"/>
      <point x="361" y="1362" type="curve"/>
      <point x="371" y="1362" type="line"/>
      <point x="379" y="1416" type="line"/>
      <point x="319" y="1432"/>
      <point x="215" y="1338"/>
      <point x="197" y="1206" type="curve"/>
    </contour>
  </outline>
</glyph>
<glyph name="dotaccentcomb" format="2">
  <unicode hex="0307"/>
  <anchor x="127" y="1034" name="_top"/>
  <outline>
    <contour>
      <point x="114" y="1248" type="line"/>
      <point x="202" y="1248" type="line"/>
      <point x="218" y="1368" type="line"/>
      <point x="130" y="1368" type="line"/>
    </contour>
  </outline>
</glyph>
<glyph name="quoteright" format="2">
  <advance width="402"/>
  <unicode hex="2019"/>
  <outline>
    <contour>
      <point x="177" y="1064" type="line"/>
      <point x="240" y="1064" type="line"/>
      <point x="413" y="1310" type="line"/>
      <point x="432" y="1446" type="line"/>
      <point x="266" y="1446" type="line"/>
      <point x="244" y="1288" type="line"/>
      <point x="313" y="1288" type="line"/>
    </contour>
  </outline>
</glyph>
<glyph name="naira" format="2">
  <advance width="1271"/>
  <unicode hex="20A6"/>
  <anchor x="451.48" y="0" name="bottom"/>
  <anchor x="882.86084" y="1446" name="top"/>
  <outline>
    <contour>
      <point x="60" y="866" type="line"/>
      <point x="1310" y="868" type="line"/>
      <point x="1320" y="942" type="line"/>
      <point x="70" y="940" type="line"/>
    </contour>
    <contour>
      <point x="16" y="554" type="line"/>
      <point x="1266" y="556" type="line"/>
      <point x="1276" y="630" type="line"/>
      <point x="26" y="628" type="line"/>
    </contour>
    <component base="N" xScale="0.92" yxScale="0.14054" xOffset="-72"/>
  </outline>
</glyph>
<glyph name="increment" format="2">
  <advance width="1176"/>
  <unicode hex="2206"/>
  <guideline x="147" y="372" angle="69.8252"/>
  <guideline x="469" y="371" angle="110.2678"/>
  <outline>
    <contour>
      <point x="-33" y="0" type="line"/>
      <point x="1063" y="0" type="line"/>
      <point x="717" y="1446" type="line"/>
    </contour>
    <contour>
      <point x="91" y="84" type="line"/>
      <point x="683" y="1210" type="line"/>
      <point x="959" y="84" type="line"/>
    </contour>
  </outline>
</glyph>
<glyph name="radical" format="2">
  <advance width="1069"/>
  <unicode hex="221A"/>
  <outline>
    <contour>
      <point x="398" y="-322" type="line"/>
      <point x="488" y="-322" type="line"/>
      <point x="1238" y="1650" type="line"/>
      <point x="1166" y="1650" type="line"/>
      <point x="454" y="-210" type="line"/>
      <point x="278" y="748" type="line"/>
      <point x="50" y="658" type="line"/>
      <point x="64" y="586" type="line"/>
      <point x="206" y="644" type="line"/>
    </contour>
  </outline>
</glyph>
<glyph name="acutecomb.viet" format="2">
  <anchor x="138" y="1034" name="_top"/>
  <outline>
    <contour>
      <point x="211" y="1359" type="line"/>
      <point x="100" y="1155" type="line"/>
      <point x="175" y="1155" type="line"/>
      <point x="331" y="1359" type="line"/>
    </contour>
  </outline>
</glyph>
<glyph name="cent.tf" format="2">
  <advance width="1400"/>
  <anchor x="633" y="222" name="bottom"/>
  <anchor x="776" y="1256" name="top"/>
  <outline>
    <contour>
      <point x="669" y="0" type="line"/>
      <point x="703" y="236" type="line"/>
      <point x="629" y="236" type="line"/>
      <point x="595" y="0" type="line"/>
    </contour>
    <contour>
      <point x="839" y="1210" type="line"/>
      <point x="873" y="1446" type="line"/>
      <point x="799" y="1446" type="line"/>
      <point x="765" y="1210" type="line"/>
    </contour>
    <component base="c" xOffset="210" yOffset="222"/>
  </outline>
</glyph>
<glyph name="colonsign.tf" format="2">
  <advance width="1318"/>
  <anchor x="603" y="0" name="bottom"/>
  <anchor x="792" y="1446" name="top"/>
  <outline>
    <contour>
      <point x="737" y="1560" type="line"/>
      <point x="417" y="-122" type="line"/>
      <point x="491" y="-122" type="line"/>
      <point x="811" y="1560" type="line"/>
    </contour>
    <contour>
      <point x="941" y="1560" type="line"/>
      <point x="621" y="-122" type="line"/>
      <point x="695" y="-122" type="line"/>
      <point x="1015" y="1560" type="line"/>
    </contour>
    <component base="C" xOffset="13"/>
  </outline>
</glyph>
<glyph name="dollar.tf" format="2">
  <advance width="1400"/>
  <outline>
    <contour>
      <point x="627" y="-20" type="curve" smooth="yes"/>
      <point x="888" y="-20"/>
      <point x="1098" y="142"/>
      <point x="1128" y="354" type="curve" smooth="yes"/>
      <point x="1150" y="512"/>
      <point x="1092" y="655"/>
      <point x="893" y="728" type="curve" smooth="yes"/>
      <point x="675" y="808" type="line" smooth="yes"/>
      <point x="476" y="881"/>
      <point x="414" y="942"/>
      <point x="431" y="1066" type="curve" smooth="yes"/>
      <point x="461" y="1286"/>
      <point x="674" y="1382"/>
      <point x="833" y="1382" type="curve" smooth="yes"/>
      <point x="1015" y="1382"/>
      <point x="1121" y="1280"/>
      <point x="1127" y="1064" type="curve"/>
      <point x="1204" y="1080" type="line"/>
      <point x="1213" y="1280"/>
      <point x="1097" y="1464"/>
      <point x="848" y="1464" type="curve" smooth="yes"/>
      <point x="578" y="1464"/>
      <point x="383" y="1292"/>
      <point x="351" y="1064" type="curve" smooth="yes"/>
      <point x="327" y="892"/>
      <point x="430" y="796"/>
      <point x="614" y="732" type="curve" smooth="yes"/>
      <point x="845" y="652" type="line" smooth="yes"/>
      <point x="1008" y="596"/>
      <point x="1068" y="498"/>
      <point x="1047" y="350" type="curve" smooth="yes"/>
      <point x="1022" y="172"/>
      <point x="816" y="64"/>
      <point x="639" y="64" type="curve" smooth="yes"/>
      <point x="442" y="64"/>
      <point x="307" y="156"/>
      <point x="287" y="352" type="curve"/>
      <point x="206" y="334" type="line"/>
      <point x="215" y="110"/>
      <point x="382" y="-20"/>
    </contour>
    <contour>
      <point x="837" y="1672" type="line"/>
      <point x="801" y="1414" type="line"/>
      <point x="884" y="1414" type="line"/>
      <point x="920" y="1672" type="line"/>
    </contour>
    <contour>
      <point x="589" y="30" type="line"/>
      <point x="553" y="-228" type="line"/>
      <point x="636" y="-228" type="line"/>
      <point x="673" y="30" type="line"/>
    </contour>
  </outline>
</glyph>
<glyph name="florin.tf" format="2">
  <advance width="1400"/>
  <outline>
    <contour>
      <point x="1046" y="1034" type="line"/>
      <point x="760" y="1034" type="line"/>
      <point x="792" y="1214" type="line" smooth="yes"/>
      <point x="810" y="1314"/>
      <point x="872" y="1378"/>
      <point x="956" y="1378" type="curve" smooth="yes"/>
      <point x="1116" y="1378" type="line"/>
      <point x="1126" y="1446" type="line"/>
      <point x="976" y="1446" type="line" smooth="yes"/>
      <point x="830" y="1446"/>
      <point x="740" y="1366"/>
      <point x="712" y="1206" type="curve" smooth="yes"/>
      <point x="682" y="1034" type="line"/>
      <point x="516" y="1034" type="line"/>
      <point x="504" y="966" type="line"/>
      <point x="670" y="966" type="line"/>
      <point x="486" y="-90" type="line" smooth="yes"/>
      <point x="464" y="-214"/>
      <point x="416" y="-262"/>
      <point x="312" y="-264" type="curve" smooth="yes"/>
      <point x="200" y="-266" type="line"/>
      <point x="190" y="-332" type="line"/>
      <point x="300" y="-332" type="line" smooth="yes"/>
      <point x="456" y="-332"/>
      <point x="538" y="-240"/>
      <point x="566" y="-80" type="curve" smooth="yes"/>
      <point x="748" y="966" type="line"/>
      <point x="1034" y="966" type="line"/>
    </contour>
  </outline>
</glyph>
<glyph name="liraTurkish.tf" format="2">
  <advance width="1400"/>
  <outline>
    <contour>
      <point x="569" y="0" type="line" smooth="yes"/>
      <point x="790" y="0"/>
      <point x="991" y="142"/>
      <point x="1112" y="424" type="curve"/>
      <point x="1038" y="446" type="line"/>
      <point x="910" y="180"/>
      <point x="767" y="78"/>
      <point x="579" y="78" type="curve" smooth="yes"/>
      <point x="466" y="78" type="line"/>
      <point x="658" y="1446" type="line"/>
      <point x="574" y="1446" type="line"/>
      <point x="371" y="0" type="line"/>
    </contour>
    <contour>
      <point x="873" y="1014" type="line"/>
      <point x="326" y="810" type="line"/>
      <point x="340" y="726" type="line"/>
      <point x="891" y="930" type="line"/>
    </contour>
    <contour>
      <point x="827" y="688" type="line"/>
      <point x="280" y="484" type="line"/>
      <point x="294" y="400" type="line"/>
      <point x="845" y="604" type="line"/>
    </contour>
  </outline>
</glyph>
<glyph name="rupeeIndian.tf" format="2">
  <advance width="1400"/>
  <outline>
    <contour>
      <point x="257" y="790" type="line"/>
      <point x="246" y="712" type="line"/>
      <point x="672" y="712" type="line"/>
      <point x="815" y="0" type="line"/>
      <point x="905" y="0" type="line"/>
      <point x="764" y="718" type="line" smooth="yes"/>
      <point x="763" y="724"/>
      <point x="765" y="730"/>
      <point x="773" y="732" type="curve" smooth="yes"/>
      <point x="904" y="765"/>
      <point x="1066" y="864"/>
      <point x="1099" y="1102" type="curve" smooth="yes"/>
      <point x="1131" y="1330"/>
      <point x="996" y="1446"/>
      <point x="736" y="1446" type="curve" smooth="yes"/>
      <point x="349" y="1446" type="line"/>
      <point x="338" y="1368" type="line"/>
      <point x="724" y="1368" type="line" smooth="yes"/>
      <point x="942" y="1368"/>
      <point x="1035" y="1278"/>
      <point x="1010" y="1100" type="curve" smooth="yes"/>
      <point x="978" y="874"/>
      <point x="839" y="790"/>
      <point x="579" y="790" type="curve" smooth="yes"/>
    </contour>
    <contour>
      <point x="1296" y="1448" type="line"/>
      <point x="353" y="1446" type="line"/>
      <point x="343" y="1372" type="line"/>
      <point x="1285" y="1374" type="line"/>
    </contour>
    <contour>
      <point x="1252" y="1136" type="line"/>
      <point x="309" y="1134" type="line"/>
      <point x="299" y="1060" type="line"/>
      <point x="1242" y="1062" type="line"/>
    </contour>
  </outline>
</glyph>
<glyph name="yen.tf" format="2">
  <advance width="1400"/>
  <outline>
    <contour>
      <point x="1310" y="1446" type="line"/>
      <point x="1227" y="1446" type="line"/>
      <point x="715" y="702" type="line"/>
      <point x="416" y="1446" type="line"/>
      <point x="321" y="1446" type="line"/>
      <point x="661" y="606" type="line"/>
      <point x="575" y="0" type="line"/>
      <point x="659" y="0" type="line"/>
      <point x="748" y="638" type="line"/>
    </contour>
    <contour>
      <point x="1040" y="658" type="line"/>
      <point x="379" y="656" type="line"/>
      <point x="368" y="582" type="line"/>
      <point x="1030" y="584" type="line"/>
    </contour>
    <contour>
      <point x="1002" y="384" type="line"/>
      <point x="340" y="382" type="line"/>
      <point x="330" y="308" type="line"/>
      <point x="991" y="310" type="line"/>
    </contour>
  </outline>
</glyph>
